<svg xmlns="http://www.w3.org/2000/svg" width="144" height="144" version="1.1" viewBox="0 0 38.1 38.1"><metadata/><rect width="38.1" height="38.1" fill="#fff" stroke-linecap="round" stroke-width=".529" rx="4.233" ry="4.233"/><path d="m14.032 4.7625-1.1427 5.715h-5.715l-1.1432 5.715h5.715l-1.1427 5.715h-5.715l-1.1432 5.715h5.715l-1.1432 5.715h5.715l1.1432-5.715h5.715l-1.1432 5.715h5.715l1.1432-5.715s5.7148-1.4e-5 7.4293-8.5725c1.7145-8.5725-4.0002-8.5725-4.0002-8.5725l1.1427-5.715h-5.715l-1.1427 5.715h-5.715l1.1427-5.715zm3.4291 11.43h8.5725s2.8574 0 2.2859 2.8575c-0.57149 2.8575-3.4286 2.8575-3.4286 2.8575h-8.5725z"/></svg>